<svg version="1.1" xmlns="http://www.w3.org/2000/svg" xmlns:xlink="http://www.w3.org/1999/xlink" x="0px" y="0px" viewBox="0 0 45 45" style="enable-background:new 0 0 45 45;" xml:space="preserve">
<g>
	<path class="st0" d="M22.5,18.05c0.77,0,1.39,0.6,1.39,1.35v7.19c0,0.74-0.62,1.35-1.39,1.35s-1.39-0.6-1.39-1.35v-7.19   C21.11,18.65,21.73,18.05,22.5,18.05z"/>
	<path class="st1" d="M24.35,31.97c0,0.99-0.83,1.8-1.85,1.8s-1.85-0.8-1.85-1.8c0-0.99,0.83-1.8,1.85-1.8S24.35,30.98,24.35,31.97z   "/>
	<path class="st0" d="M18.38,6.62c1.99-2.82,6.26-2.82,8.25,0c2.47,3.5,5.97,8.6,8.31,12.59c2.46,4.19,5.25,9.93,7.11,13.89   c1.46,3.11-0.74,6.64-4.26,6.85C33.44,40.2,27.21,40.5,22.5,40.5c-4.71,0-10.94-0.3-15.28-0.55c-3.52-0.2-5.73-3.73-4.26-6.85   c1.86-3.96,4.66-9.7,7.11-13.89C12.41,15.22,15.91,10.12,18.38,6.62z M24.33,8.14c-0.89-1.26-2.77-1.26-3.65,0   c-2.47,3.5-5.91,8.51-8.18,12.4c-2.39,4.08-5.14,9.73-7,13.68c-0.65,1.39,0.32,2.95,1.9,3.04c4.33,0.25,10.49,0.55,15.11,0.55   c4.62,0,10.78-0.3,15.11-0.55c1.58-0.09,2.55-1.65,1.9-3.04c-1.86-3.95-4.61-9.6-7-13.68C30.23,16.65,26.79,11.64,24.33,8.14z"/>
</g>
</svg>