<svg version="1.1" xmlns="http://www.w3.org/2000/svg" xmlns:xlink="http://www.w3.org/1999/xlink" x="0px" y="0px" viewBox="0 0 45 45" style="enable-background:new 0 0 45 45;" xml:space="preserve">
<g>
	<path class="st0" d="M24.56,31.22h-8.26c-0.86,0-1.55,0.69-1.55,1.54c0,0.85,0.69,1.54,1.55,1.54h8.26c0.86,0,1.55-0.69,1.55-1.54   C26.11,31.91,25.42,31.22,24.56,31.22z"/>
	<path class="st0" d="M16.31,28.14h4.13c0.86,0,1.55-0.69,1.55-1.54c0-0.85-0.69-1.54-1.55-1.54h-4.13c-0.86,0-1.55,0.69-1.55,1.54   C14.76,27.45,15.45,28.14,16.31,28.14z"/>
	<path class="st0" d="M38.32,16.28c0-0.01,0-0.01,0-0.02c-0.02-0.46-0.05-0.92-0.07-1.38C37.89,8.32,32.74,2.95,26.07,2.61   c-0.48-0.03-0.96-0.05-1.43-0.06l-0.02,0C23.88,2.52,23.17,2.5,22.5,2.5c-3.21,0-7.44,0.35-10.31,0.63C9.49,3.39,7.4,5.53,7.2,8.2   C6.91,11.9,6.5,18,6.5,22.5s0.41,10.6,0.7,14.29c0.21,2.67,2.3,4.82,4.99,5.08c2.87,0.28,7.1,0.63,10.31,0.63s7.44-0.35,10.31-0.63   c2.7-0.26,4.79-2.41,4.99-5.08c0.28-3.7,0.7-9.79,0.7-14.29C38.5,20.6,38.43,18.43,38.32,16.28z M26.11,5.69   c4.84,0.36,8.65,4.24,9.03,9.12h-6.45c-1.43,0-2.58-1.15-2.58-2.56V5.69z M34.72,36.56c-0.09,1.19-1.02,2.14-2.21,2.25   c-2.86,0.28-6.96,0.61-10.01,0.61s-7.14-0.33-10.01-0.61c-1.19-0.12-2.12-1.06-2.21-2.25C10,32.86,9.6,26.87,9.6,22.5   S10,12.14,10.28,8.44c0.09-1.19,1.02-2.14,2.21-2.25c2.86-0.28,6.96-0.61,10.01-0.61c0.17,0,0.34,0,0.52,0v6.66   c0,3.12,2.54,5.64,5.68,5.64h6.6c0.07,1.62,0.11,3.2,0.11,4.62C35.4,26.87,35,32.86,34.72,36.56z"/>
</g>
</svg>