<svg version="1.1" xmlns="http://www.w3.org/2000/svg" xmlns:xlink="http://www.w3.org/1999/xlink" x="0px" y="0px"
	viewBox="0 0 30 30" style="enable-background:new 0 0 30 30;" xml:space="preserve">
<g>
	<g>
		<path class="st0" d="M19.92,15.7h-3.4c-0.93,0-1.69,0.76-1.69,1.69v2.61c0,0.93,0.76,1.69,1.69,1.69h3.4
			c0.93,0,1.69-0.76,1.69-1.69v-2.61C21.61,16.46,20.85,15.7,19.92,15.7z M20.38,19.99c0,0.26-0.21,0.46-0.46,0.46h-3.4
			c-0.26,0-0.46-0.21-0.46-0.46v-2.61c0-0.26,0.21-0.46,0.46-0.46h3.4c0.26,0,0.46,0.21,0.46,0.46V19.99z"/>
		<path class="st0" d="M27.16,10.96c0-0.11-0.03-0.21-0.08-0.3l-3.72-6.54c-0.11-0.19-0.31-0.31-0.53-0.31H6.48
			c-0.22,0-0.42,0.12-0.53,0.31l-3.71,6.54c-0.05,0.09-0.08,0.19-0.08,0.3c0,1.47,0.88,2.72,2.15,3.28v10.78
			c0,0.34,0.28,0.61,0.61,0.61H8.3c0.01,0,0.01,0,0.02,0h4.75c0.01,0,0.01,0,0.02,0h11.31c0.34,0,0.61-0.28,0.61-0.61V14.32
			c0-0.03,0-0.05-0.01-0.07C26.27,13.7,27.16,12.44,27.16,10.96z M6.84,5.04h15.63l2.91,5.11H3.94L6.84,5.04z M19.95,11.38
			c-0.19,1.1-1.16,1.94-2.32,1.94c-1.16,0-2.13-0.84-2.32-1.94H19.95z M14.01,11.38c-0.19,1.1-1.16,1.94-2.32,1.94
			s-2.13-0.84-2.32-1.94H14.01z M3.42,11.38h4.64c-0.19,1.1-1.16,1.94-2.32,1.94C4.58,13.32,3.62,12.48,3.42,11.38z M12.46,24.41
			H8.93V17.8c0-0.48,0.39-0.87,0.87-0.87h1.78c0.48,0,0.87,0.39,0.87,0.87L12.46,24.41L12.46,24.41z M23.78,24.41h-10.1V17.8
			c0-1.15-0.94-2.1-2.1-2.1H9.8c-1.15,0-2.1,0.94-2.1,2.1v6.62H5.53v-9.87c0.07,0.01,0.14,0.01,0.21,0.01
			c1.24,0,2.33-0.63,2.97-1.58c0.64,0.96,1.74,1.58,2.97,1.58s2.32-0.63,2.97-1.58c0.64,0.96,1.74,1.58,2.97,1.58
			c1.24,0,2.32-0.63,2.97-1.58c0.64,0.96,1.74,1.58,2.97,1.58c0.07,0,0.14-0.01,0.21-0.01L23.78,24.41L23.78,24.41z M23.57,13.32
			c-1.16,0-2.13-0.84-2.32-1.94h4.64C25.7,12.48,24.73,13.32,23.57,13.32z"/>
	</g>
</g>
</svg>