<svg version="1.1" xmlns="http://www.w3.org/2000/svg" xmlns:xlink="http://www.w3.org/1999/xlink" x="0px" y="0px" viewBox="0 0 45 45" style="enable-background:new 0 0 45 45;" xml:space="preserve">
<g>
	<path class="st0" d="M29.95,17.18c0.62,0.6,0.62,1.58,0,2.19l-8.44,8.25c-0.62,0.6-1.62,0.6-2.24,0l-4.22-4.12   c-0.62-0.6-0.62-1.58,0-2.19c0.62-0.6,1.62-0.6,2.24,0l3.1,3.03l7.32-7.15C28.33,16.58,29.33,16.58,29.95,17.18z"/>
	<path class="st0" d="M23.29,5.71c-0.52-0.16-1.07-0.16-1.59,0l-14.2,4.38c-1.26,0.39-2.03,1.63-1.8,2.9l2.22,12.35   c0.82,4.53,3.18,8.59,7,10.93c1.4,0.86,2.86,1.66,4.22,2.24c1.39,0.6,2.54,0.9,3.35,0.9c0.81,0,1.95-0.3,3.35-0.9   c1.36-0.58,2.82-1.38,4.22-2.24c3.82-2.33,6.18-6.4,7-10.93l2.22-12.35c0.23-1.27-0.54-2.51-1.8-2.9L23.29,5.71z M20.75,2.76   c1.14-0.35,2.36-0.35,3.5,0l14.2,4.38c2.78,0.86,4.47,3.59,3.97,6.39l-2.22,12.35c-0.93,5.18-3.7,10.11-8.44,13.01   c-1.47,0.9-3.08,1.79-4.64,2.45C25.59,42,23.97,42.5,22.5,42.5c-1.47,0-3.09-0.51-4.61-1.16c-1.56-0.66-3.16-1.55-4.64-2.45   c-4.74-2.9-7.5-7.83-8.44-13.01L2.59,13.53C2.08,10.73,3.78,8,6.56,7.14L20.75,2.76z"/>
</g>
</svg>